<svg width="139" height="36" viewBox="0 0 139 36" fill="none" xmlns="http://www.w3.org/2000/svg">
<path d="M21.5694 16.8087C21.5333 12.899 24.8528 10.9968 25.0046 10.9083C23.1246 8.23587 20.2107 7.87073 19.1867 7.84162C16.7394 7.59051 14.3655 9.26942 13.1188 9.26942C11.8473 9.26942 9.9275 7.86588 7.85841 7.90713C5.19585 7.94716 2.70498 9.45017 1.33887 11.7841C-1.48046 16.5431 0.622213 23.5365 3.32335 27.3832C4.67453 29.2671 6.25341 31.3706 8.32 31.2966C10.3418 31.2153 11.097 30.0398 13.5369 30.0398C15.9543 30.0398 16.6635 31.2966 18.7712 31.2493C20.941 31.2153 22.3072 29.3569 23.6111 27.456C25.1725 25.2967 25.7996 23.1701 25.8245 23.061C25.7735 23.044 21.6104 21.4949 21.5694 16.8087Z" fill="white"/>
<path d="M17.588 5.31113C18.6754 3.98523 19.4194 2.18137 19.2129 0.35083C17.639 0.418763 15.6707 1.41228 14.5372 2.70906C13.5344 3.85179 12.6386 5.72479 12.87 7.48619C14.638 7.61477 16.4533 6.61641 17.588 5.31113Z" fill="white"/>
<path d="M50.8027 30.6146H47.9771L46.4293 25.8727H41.0495L39.5751 30.6146H36.8242L42.1543 14.4709H45.4464L50.8027 30.6146ZM45.9628 23.8832L44.5631 19.6678C44.415 19.2371 44.1376 18.223 43.7282 16.6266H43.6784C43.5155 17.3132 43.2529 18.3273 42.8921 19.6678L41.5173 23.8832H45.9628Z" fill="white"/>
<path d="M64.5099 24.6511C64.5099 26.6309 63.9612 28.1958 62.8638 29.3446C61.8809 30.3672 60.6604 30.8779 59.2034 30.8779C57.6308 30.8779 56.501 30.3271 55.813 29.2257H55.7632V35.3578H53.1106V22.806C53.1106 21.5614 53.077 20.284 53.0123 18.9739H55.3452L55.4933 20.819H55.543C56.4276 19.4288 57.7701 18.7349 59.5717 18.7349C60.9801 18.7349 62.1559 19.2772 63.0965 20.3629C64.0396 21.4498 64.5099 22.8788 64.5099 24.6511ZM61.8075 24.7458C61.8075 23.6127 61.5462 22.6787 61.0212 21.9435C60.4476 21.1769 59.6775 20.7935 58.712 20.7935C58.0575 20.7935 57.4628 21.007 56.9315 21.428C56.399 21.8525 56.0506 22.4069 55.8877 23.0935C55.8055 23.4138 55.7645 23.6758 55.7645 23.882V25.823C55.7645 26.6697 56.0307 27.3842 56.5633 27.9677C57.0958 28.5512 57.7875 28.8423 58.6386 28.8423C59.6376 28.8423 60.4153 28.4663 60.9714 27.7166C61.5288 26.9657 61.8075 25.9758 61.8075 24.7458Z" fill="white"/>
<path d="M78.242 24.6511C78.242 26.6309 77.6933 28.1958 76.5947 29.3446C75.613 30.3672 74.3925 30.8779 72.9355 30.8779C71.3629 30.8779 70.2332 30.3271 69.5464 29.2257H69.4966V35.3578H66.844V22.806C66.844 21.5614 66.8104 20.284 66.7457 18.9739H69.0786L69.2266 20.819H69.2764C70.1598 19.4288 71.5022 18.7349 73.3051 18.7349C74.7122 18.7349 75.888 19.2772 76.8311 20.3629C77.7705 21.4498 78.242 22.8788 78.242 24.6511ZM75.5396 24.7458C75.5396 23.6127 75.2771 22.6787 74.7521 21.9435C74.1785 21.1769 73.4108 20.7935 72.4441 20.7935C71.7884 20.7935 71.1949 21.007 70.6624 21.428C70.1299 21.8525 69.7828 22.4069 69.6198 23.0935C69.5389 23.4138 69.4966 23.6758 69.4966 23.882V25.823C69.4966 26.6697 69.7629 27.3842 70.2929 27.9677C70.8254 28.55 71.5172 28.8423 72.3707 28.8423C73.3698 28.8423 74.1474 28.4663 74.7035 27.7166C75.2609 26.9657 75.5396 25.9758 75.5396 24.7458Z" fill="white"/>
<path d="M93.5953 26.0874C93.5953 27.4606 93.1063 28.5779 92.1247 29.4404C91.0459 30.3829 89.5442 30.8536 87.6145 30.8536C85.8328 30.8536 84.4045 30.5188 83.3233 29.848L83.9379 27.6923C85.1025 28.3789 86.3802 28.7234 87.7725 28.7234C88.7716 28.7234 89.5492 28.5027 90.1078 28.0635C90.664 27.6244 90.9414 27.0348 90.9414 26.2997C90.9414 25.6446 90.7125 25.0927 90.2534 24.6451C89.7968 24.1974 89.0341 23.7813 87.9691 23.3968C85.0701 22.3426 83.6219 20.7984 83.6219 18.7677C83.6219 17.4406 84.1295 16.3524 85.146 15.5057C86.1588 14.6577 87.51 14.2344 89.1996 14.2344C90.7063 14.2344 91.9579 14.4903 92.957 15.001L92.2939 17.1094C91.3607 16.6144 90.3056 16.367 89.1249 16.367C88.1918 16.367 87.4627 16.5914 86.9401 17.0378C86.4984 17.4369 86.277 17.9234 86.277 18.4996C86.277 19.1377 86.5295 19.6654 87.0372 20.0802C87.4788 20.4636 88.2814 20.8784 89.4459 21.3261C90.8705 21.8853 91.9169 22.5391 92.59 23.2888C93.2606 24.0361 93.5953 24.9714 93.5953 26.0874Z" fill="white"/>
<path d="M102.366 20.9148H99.4417V26.5666C99.4417 28.0041 99.9568 28.7222 100.989 28.7222C101.464 28.7222 101.857 28.6822 102.168 28.6021L102.241 30.5661C101.719 30.7566 101.031 30.8524 100.178 30.8524C99.1307 30.8524 98.312 30.5406 97.721 29.9183C97.1325 29.2948 96.8364 28.2491 96.8364 26.7801V20.9124H95.0945V18.9715H96.8364V16.8401L99.4417 16.0734V18.9715H102.366V20.9148Z" fill="white"/>
<path d="M115.558 24.6984C115.558 26.4877 115.033 27.9568 113.985 29.1056C112.886 30.2883 111.428 30.8779 109.61 30.8779C107.859 30.8779 106.464 30.3114 105.424 29.1783C104.384 28.0453 103.864 26.6151 103.864 24.8913C103.864 23.0875 104.399 21.6099 105.472 20.4611C106.544 19.3111 107.989 18.7361 109.807 18.7361C111.559 18.7361 112.969 19.3026 114.032 20.4369C115.05 21.5371 115.558 22.9577 115.558 24.6984ZM112.806 24.7821C112.806 23.7086 112.57 22.7878 112.094 22.0199C111.538 21.0907 110.743 20.6273 109.712 20.6273C108.646 20.6273 107.836 21.0919 107.28 22.0199C106.804 22.789 106.568 23.7243 106.568 24.8307C106.568 25.9042 106.804 26.825 107.28 27.5916C107.854 28.5209 108.655 28.9843 109.689 28.9843C110.702 28.9843 111.497 28.5111 112.07 27.5674C112.559 26.7849 112.806 25.8545 112.806 24.7821Z" fill="white"/>
<path d="M124.18 21.2484C123.917 21.2011 123.637 21.1769 123.344 21.1769C122.411 21.1769 121.689 21.5202 121.181 22.208C120.74 22.8145 120.518 23.5812 120.518 24.5068V30.6146H117.867L117.892 22.6398C117.892 21.2982 117.858 20.0766 117.792 18.9751H120.103L120.2 21.2023H120.273C120.553 20.4369 120.995 19.8206 121.599 19.3584C122.19 18.9424 122.829 18.7349 123.517 18.7349C123.762 18.7349 123.983 18.7519 124.18 18.7822V21.2484Z" fill="white"/>
<path d="M136.043 24.2435C136.043 24.7069 136.012 25.0975 135.946 25.4166H127.988C128.019 26.5666 128.404 27.4461 129.143 28.0526C129.814 28.5949 130.681 28.8666 131.746 28.8666C132.924 28.8666 133.999 28.6834 134.966 28.3158L135.381 30.1112C134.252 30.5916 132.918 30.8306 131.379 30.8306C129.527 30.8306 128.074 30.2992 127.017 29.2378C125.962 28.1763 125.433 26.751 125.433 24.9629C125.433 23.2075 125.924 21.7458 126.908 20.58C127.939 19.3354 129.331 18.7131 131.083 18.7131C132.803 18.7131 134.106 19.3354 134.991 20.58C135.691 21.5687 136.043 22.7915 136.043 24.2435ZM133.514 23.5727C133.531 22.806 133.358 22.1437 132.999 21.5844C132.54 20.8651 131.834 20.506 130.885 20.506C130.018 20.506 129.312 20.8566 128.773 21.5602C128.332 22.1194 128.069 22.7902 127.988 23.5715H133.514V23.5727Z" fill="white"/>
<g filter="url(#filter0_d_4632_11274)">
<path d="M45.0857 4.95099C45.0857 6.37879 44.6465 7.45358 43.7693 8.17537C42.9569 8.84135 41.8023 9.17495 40.3068 9.17495C39.5652 9.17495 38.9307 9.14341 38.3994 9.08033V1.27899C39.0924 1.16981 39.8389 1.11401 40.6452 1.11401C42.0698 1.11401 43.1435 1.41606 43.8676 2.02018C44.6788 2.70315 45.0857 3.67968 45.0857 4.95099ZM43.7109 4.98617C43.7109 4.06059 43.4595 3.35093 42.9569 2.85599C42.4542 2.36227 41.7202 2.1148 40.7534 2.1148C40.3428 2.1148 39.9932 2.14149 39.7033 2.19729V8.12806C39.8638 8.15232 40.1575 8.16324 40.5842 8.16324C41.5821 8.16324 42.3522 7.89272 42.8947 7.35168C43.4371 6.81065 43.7109 6.02214 43.7109 4.98617Z" fill="white"/>
<path d="M52.3754 6.19804C52.3754 7.07752 52.1178 7.79809 51.6027 8.36339C51.0628 8.94446 50.3474 9.23438 49.454 9.23438C48.5931 9.23438 47.9075 8.95659 47.3961 8.39857C46.886 7.84177 46.631 7.13939 46.631 6.29266C46.631 5.40711 46.8935 4.68047 47.421 4.11639C47.9486 3.5523 48.6577 3.26965 49.5511 3.26965C50.4121 3.26965 51.1038 3.54745 51.6276 4.10426C52.1253 4.64529 52.3754 5.34403 52.3754 6.19804ZM51.023 6.23928C51.023 5.71159 50.906 5.25911 50.6733 4.88184C50.3996 4.42572 50.0102 4.19766 49.5038 4.19766C48.98 4.19766 48.5819 4.42572 48.3081 4.88184C48.0742 5.25911 47.9585 5.71887 47.9585 6.26233C47.9585 6.79002 48.0755 7.2425 48.3081 7.61977C48.5906 8.07589 48.9837 8.30395 49.4914 8.30395C49.989 8.30395 50.3797 8.07225 50.6609 7.60764C50.9023 7.22309 51.023 6.76697 51.023 6.23928Z" fill="white"/>
<path d="M62.1497 3.38611L60.3145 9.10458H59.1201L58.3599 6.6214C58.1671 6.00152 58.0103 5.38527 57.8884 4.77388H57.8647C57.7515 5.40225 57.5947 6.01729 57.3932 6.6214L56.5857 9.10458H55.3776L53.6519 3.38611H54.9919L55.6551 6.10463C55.8156 6.74756 55.9474 7.36017 56.0532 7.94002H56.0768C56.1739 7.46207 56.3344 6.8531 56.5608 6.11676L57.3932 3.38732H58.4557L59.2533 6.05853C59.4461 6.70996 59.6029 7.33712 59.7236 7.94124H59.7596C59.848 7.35289 59.9811 6.72573 60.1578 6.05853L60.8694 3.38732H62.1497V3.38611Z" fill="white"/>
<path d="M68.9094 9.1046H67.6055V5.82927C67.6055 4.81998 67.2123 4.31534 66.4235 4.31534C66.0366 4.31534 65.7243 4.45363 65.4817 4.73143C65.2415 5.00922 65.1196 5.33676 65.1196 5.7116V9.10338H63.8157V5.02014C63.8157 4.51793 63.7995 3.97325 63.7684 3.38369H64.9143L64.9753 4.27774H65.0114C65.1632 3.99994 65.3896 3.77067 65.687 3.58749C66.0403 3.37399 66.4359 3.26602 66.8689 3.26602C67.4164 3.26602 67.8717 3.43828 68.2338 3.78401C68.6842 4.20738 68.9094 4.83939 68.9094 5.67885V9.1046Z" fill="white"/>
<path d="M72.5051 9.10458H71.2024V0.762207H72.5051V9.10458Z" fill="white"/>
<path d="M80.1818 6.19804C80.1818 7.07752 79.9242 7.79809 79.4091 8.36339C78.8691 8.94446 78.1525 9.23438 77.2604 9.23438C76.3982 9.23438 75.7126 8.95659 75.2025 8.39857C74.6924 7.84177 74.4373 7.13939 74.4373 6.29266C74.4373 5.40711 74.6999 4.68047 75.2274 4.11639C75.7549 3.5523 76.4641 3.26965 77.3562 3.26965C78.2184 3.26965 78.9089 3.54745 79.434 4.10426C79.9317 4.64529 80.1818 5.34403 80.1818 6.19804ZM78.8281 6.23928C78.8281 5.71159 78.7111 5.25911 78.4785 4.88184C78.206 4.42572 77.8153 4.19766 77.3102 4.19766C76.7851 4.19766 76.387 4.42572 76.1145 4.88184C75.8806 5.25911 75.7649 5.71887 75.7649 6.26233C75.7649 6.79002 75.8818 7.2425 76.1145 7.61977C76.3969 8.07589 76.7901 8.30395 77.2977 8.30395C77.7954 8.30395 78.1848 8.07225 78.466 7.60764C78.7086 7.22309 78.8281 6.76697 78.8281 6.23928Z" fill="white"/>
<path d="M86.4923 9.10458H85.3215L85.2244 8.44588H85.1884C84.7877 8.97115 84.2166 9.23438 83.4751 9.23438C82.9215 9.23438 82.4735 9.06091 82.1364 8.7164C81.8303 8.40342 81.6773 8.01402 81.6773 7.55184C81.6773 6.8531 81.9759 6.32056 82.5768 5.95178C83.1765 5.583 84.0201 5.40225 85.1062 5.41075V5.304C85.1062 4.55067 84.7006 4.17462 83.8882 4.17462C83.3096 4.17462 82.7995 4.31655 82.3591 4.59798L82.0941 3.76338C82.639 3.43463 83.3121 3.26965 84.1059 3.26965C85.6388 3.26965 86.4077 4.05816 86.4077 5.63517V7.74108C86.4077 8.31244 86.4363 8.76735 86.4923 9.10458ZM85.1386 7.13939V6.25748C83.7003 6.23322 82.9812 6.61776 82.9812 7.40991C82.9812 7.70833 83.0633 7.93153 83.2313 8.08074C83.3992 8.22995 83.6132 8.30395 83.8683 8.30395C84.1544 8.30395 84.4219 8.21539 84.6658 8.0395C84.9109 7.86239 85.0615 7.63797 85.1174 7.3626C85.1311 7.30073 85.1386 7.22552 85.1386 7.13939Z" fill="white"/>
<path d="M93.9014 9.10458H92.7443L92.6833 8.18628H92.6473C92.2777 8.88501 91.6482 9.23438 90.7636 9.23438C90.0569 9.23438 89.4684 8.96387 89.0018 8.42283C88.5352 7.88179 88.3026 7.17942 88.3026 6.31692C88.3026 5.39133 88.5551 4.64165 89.0628 4.06907C89.5542 3.53532 90.1564 3.26844 90.8731 3.26844C91.6606 3.26844 92.2118 3.52682 92.5253 4.04481H92.5502V0.762207H93.8554V7.56397C93.8554 8.12077 93.8703 8.6339 93.9014 9.10458ZM92.5502 6.69297V5.73949C92.5502 5.57451 92.5378 5.44107 92.5141 5.33917C92.4407 5.03347 92.2827 4.7763 92.0426 4.56886C91.8 4.36143 91.5076 4.2571 91.1704 4.2571C90.6839 4.2571 90.3032 4.44513 90.0233 4.8224C89.7458 5.19967 89.6052 5.68126 89.6052 6.26961C89.6052 6.8349 89.7384 7.29345 90.0059 7.64646C90.2883 8.02251 90.669 8.21054 91.1455 8.21054C91.5735 8.21054 91.9157 8.05405 92.1757 7.73986C92.4271 7.44994 92.5502 7.10057 92.5502 6.69297Z" fill="white"/>
<path d="M105.053 6.19804C105.053 7.07752 104.796 7.79809 104.28 8.36339C103.74 8.94446 103.026 9.23438 102.132 9.23438C101.272 9.23438 100.586 8.95659 100.074 8.39857C99.5637 7.84177 99.3087 7.13939 99.3087 6.29266C99.3087 5.40711 99.5712 4.68047 100.099 4.11639C100.626 3.5523 101.335 3.26965 102.23 3.26965C103.09 3.26965 103.783 3.54745 104.305 4.10426C104.803 4.64529 105.053 5.34403 105.053 6.19804ZM103.702 6.23928C103.702 5.71159 103.585 5.25911 103.352 4.88184C103.077 4.42572 102.689 4.19766 102.181 4.19766C101.659 4.19766 101.261 4.42572 100.986 4.88184C100.752 5.25911 100.636 5.71887 100.636 6.26233C100.636 6.79002 100.753 7.2425 100.986 7.61977C101.268 8.07589 101.661 8.30395 102.169 8.30395C102.667 8.30395 103.059 8.07225 103.34 7.60764C103.58 7.22309 103.702 6.76697 103.702 6.23928Z" fill="white"/>
<path d="M112.064 9.1046H110.761V5.82927C110.761 4.81998 110.368 4.31534 109.578 4.31534C109.191 4.31534 108.879 4.45363 108.638 4.73143C108.396 5.00922 108.276 5.33676 108.276 5.7116V9.10338H106.97V5.02014C106.97 4.51793 106.955 3.97325 106.924 3.38369H108.069L108.13 4.27774H108.166C108.319 3.99994 108.546 3.77067 108.842 3.58749C109.196 3.37399 109.591 3.26602 110.025 3.26602C110.571 3.26602 111.026 3.43828 111.388 3.78401C111.84 4.20738 112.064 4.83939 112.064 5.67885V9.1046Z" fill="white"/>
<path d="M120.839 4.33839H119.404V7.11635C119.404 7.82236 119.659 8.17537 120.164 8.17537C120.398 8.17537 120.592 8.15596 120.745 8.11593L120.778 9.08033C120.521 9.17495 120.182 9.22226 119.766 9.22226C119.251 9.22226 118.85 9.06941 118.56 8.76371C118.269 8.45802 118.125 7.94367 118.125 7.22188V4.33839H117.267V3.38612H118.125V2.33801L119.402 1.96196V3.3849H120.838V4.33839H120.839Z" fill="white"/>
<path d="M127.742 9.10458H126.437V5.85352C126.437 4.82846 126.044 4.31533 125.256 4.31533C124.652 4.31533 124.238 4.61253 124.012 5.20694C123.973 5.33189 123.951 5.48474 123.951 5.66428V9.10337H122.648V0.762207H123.951V4.20858H123.976C124.387 3.58141 124.975 3.26844 125.738 3.26844C126.278 3.26844 126.724 3.44069 127.079 3.78642C127.521 4.21707 127.742 4.85758 127.742 5.70431V9.10458Z" fill="white"/>
<path d="M134.863 5.97482C134.863 6.20288 134.845 6.39455 134.814 6.55104H130.904C130.921 7.11633 131.108 7.54698 131.47 7.8454C131.801 8.11228 132.227 8.24572 132.75 8.24572C133.328 8.24572 133.856 8.15595 134.331 7.9752L134.535 8.85832C133.979 9.09366 133.325 9.21133 132.567 9.21133C131.659 9.21133 130.943 8.95052 130.426 8.42889C129.906 7.90727 129.648 7.20732 129.648 6.32904C129.648 5.46654 129.888 4.7484 130.372 4.17582C130.877 3.56443 131.56 3.25873 132.423 3.25873C133.266 3.25873 133.907 3.56443 134.34 4.17582C134.69 4.66105 134.863 5.26153 134.863 5.97482ZM133.618 5.64608C133.628 5.26881 133.542 4.9437 133.366 4.66955C133.139 4.31654 132.795 4.13943 132.328 4.13943C131.903 4.13943 131.555 4.31169 131.29 4.65742C131.074 4.93279 130.946 5.26153 130.904 5.64608H133.618Z" fill="white"/>
</g>
<defs>
<filter id="filter0_d_4632_11274" x="34.3994" y="0.762207" width="104.463" height="16.4722" filterUnits="userSpaceOnUse" color-interpolation-filters="sRGB">
<feFlood flood-opacity="0" result="BackgroundImageFix"/>
<feColorMatrix in="SourceAlpha" type="matrix" values="0 0 0 0 0 0 0 0 0 0 0 0 0 0 0 0 0 0 127 0" result="hardAlpha"/>
<feOffset dy="4"/>
<feGaussianBlur stdDeviation="2"/>
<feComposite in2="hardAlpha" operator="out"/>
<feColorMatrix type="matrix" values="0 0 0 0 0 0 0 0 0 0 0 0 0 0 0 0 0 0 0.25 0"/>
<feBlend mode="normal" in2="BackgroundImageFix" result="effect1_dropShadow_4632_11274"/>
<feBlend mode="normal" in="SourceGraphic" in2="effect1_dropShadow_4632_11274" result="shape"/>
</filter>
</defs>
</svg>
